<svg width="18" height="13" viewBox="0 0 18 13" fill="none" xmlns="http://www.w3.org/2000/svg">
<path d="M12.8947 8H14.0713C14.1049 8 14.1834 7.98958 14.217 7.98958C14.4411 7.94792 14.6316 7.76042 14.6316 7.5C14.6316 7.25 14.4411 7.0625 14.217 7.01042C14.1834 7 14.1161 7 14.0713 7H12.8947V8Z" fill="white" fill-opacity="0.65"/>
<path d="M14.15 0C12.9895 0 12.0379 0.96517 12.0379 2.16865V4.42071H15.0203C15.09 4.42071 15.1712 4.42071 15.2292 4.43263C15.9023 4.46838 16.4013 4.82585 16.4013 5.44546C16.4013 5.93401 16.0648 6.35105 15.4381 6.43446V6.4583C16.1228 6.50596 16.645 6.89917 16.645 7.50687C16.645 8.16224 16.0648 8.5912 15.2988 8.5912H12.0263V13H15.1248C16.2853 13 17.2368 12.0348 17.2368 10.8313V0H14.15V0Z" fill="white" fill-opacity="0.65"/>
<path d="M14.6316 5.5C14.6316 5.22727 14.4236 5.04545 14.179 5.01136C14.1546 5.01136 14.0934 5 14.0567 5H12.8947V6H14.0567C14.0934 6 14.1668 6 14.179 5.98864C14.4236 5.95455 14.6316 5.77273 14.6316 5.5V5.5Z" fill="white" fill-opacity="0.65"/>
<path d="M2.86051 0C1.70003 0 0.748444 0.966055 0.748444 2.17064V7.52569C1.34029 7.82385 1.95534 8.01468 2.57039 8.01468C3.30149 8.01468 3.69605 7.56147 3.69605 6.94128V4.41284H5.50639V6.92936C5.50639 7.90734 4.91454 8.70642 2.90692 8.70642C1.68843 8.70642 0.736839 8.43211 0.736839 8.43211V13H3.8353C4.99578 13 5.94737 12.0339 5.94737 10.8294V0H2.86051V0Z" fill="white" fill-opacity="0.65"/>
<path d="M8.92785 0C7.76738 0 6.81579 0.964286 6.81579 2.16667V5C7.34961 4.53571 8.27799 4.2381 9.775 4.30952C10.5757 4.34524 11.4345 4.57143 11.4345 4.57143V5.4881C11.0051 5.2619 10.4945 5.05952 9.83302 5.0119C8.69576 4.92857 8.01108 5.5 8.01108 6.5C8.01108 7.51191 8.69576 8.08333 9.83302 7.9881C10.4945 7.94048 11.0051 7.72619 11.4345 7.51191V8.42857C11.4345 8.42857 10.5873 8.65476 9.775 8.69048C8.27799 8.7619 7.34961 8.46429 6.81579 8V13H9.91425C11.0747 13 12.0263 12.0357 12.0263 10.8333V0H8.92785V0Z" fill="white" fill-opacity="0.65"/>
</svg>
