<svg width="11" height="4" viewBox="0 0 11 4" fill="none" xmlns="http://www.w3.org/2000/svg">
<path d="M4.61523 4H4L4.38481 0H5L4.61523 4Z" fill="white" fill-opacity="0.65"/>
<path d="M8 0.164851C7.80274 0.0865043 7.48986 0 7.103 0C6.11538 0 5.4199 0.527238 5.41563 1.28103C5.40743 1.83717 5.91357 2.14607 6.29213 2.33151C6.67905 2.521 6.81058 2.64468 6.81058 2.81358C6.80664 3.07298 6.49792 3.19255 6.20999 3.19255C5.8107 3.19255 5.59676 3.13091 5.27164 2.98659L5.13995 2.92472L5 3.79392C5.23456 3.9009 5.66671 3.99584 6.11537 4C7.16474 4 7.84791 3.48092 7.85601 2.67763C7.86 2.23685 7.59273 1.8991 7.01653 1.6231C6.66675 1.44593 6.45253 1.32647 6.45253 1.1452C6.45663 0.9804 6.63371 0.811607 7.02857 0.811607C7.35369 0.80334 7.59257 0.881577 7.77353 0.959869L7.86399 1.00099L8 0.164851V0.164851Z" fill="white" fill-opacity="0.65"/>
<path d="M9.29351 2.58298C9.36236 2.35318 9.6273 1.4638 9.6273 1.4638C9.62383 1.47234 9.69602 1.22976 9.7373 1.08084L9.79573 1.42551C9.79573 1.42551 9.95405 2.38299 9.98843 2.58298C9.85777 2.58298 9.45865 2.58298 9.29351 2.58298ZM10.3255 0H9.67883C9.4794 0 9.32789 0.072282 9.24185 0.331886L8 4H8.87725C8.87725 4 9.02167 3.5063 9.05271 3.39997C9.14895 3.39997 10.0023 3.39997 10.1261 3.39997C10.1501 3.5404 10.2259 4 10.2259 4H11L10.3255 0V0Z" fill="white" fill-opacity="0.65"/>
<path d="M3.10041 0L2.26725 2.73051L2.17621 2.17673C2.02218 1.53774 1.53909 0.843494 1 0.498294L1.76314 4H2.66278L4 0H3.10041V0Z" fill="white" fill-opacity="0.65"/>
<path d="M1.33899 0H0.0135597L0 0.0743322C1.03392 0.37962 1.71867 1.1155 2 2L1.71187 0.309241C1.66443 0.0742802 1.51865 0.00775053 1.33899 0Z" fill="white" fill-opacity="0.65"/>
</svg>
